<svg xmlns="http://www.w3.org/2000/svg" version="1.1" xmlns:xlink="http://www.w3.org/1999/xlink" width="512" height="512" x="0" y="0" viewBox="0 0 469.333 469.333" style="enable-background:new 0 0 512 512" xml:space="preserve" class=""><g><g fill="#143E2C"><path d="M437.332 192H32c-17.664 0-32 14.336-32 32v21.332c0 17.664 14.336 32 32 32h405.332c17.664 0 32-14.336 32-32V224c0-17.664-14.336-32-32-32zm0 0" fill="#143E2C" opacity="1" data-original="#143E2C" class=""></path><path d="M192 32v405.332c0 17.664 14.336 32 32 32h21.332c17.664 0 32-14.336 32-32V32c0-17.664-14.336-32-32-32H224c-17.664 0-32 14.336-32 32zm0 0" fill="#143E2C" opacity="1" data-original="#4caf50" class=""></path></g></g></svg>